# AST/ASF file generated using VICON BodyLanguage
# -----------------------------------------------
:version 1.10
:name VICON
:units
  mass 1.0
  length 0.45
  angle deg
:documentation
   .ast/.asf automatically generated from VICON data using
   VICON BodyBuilder and BodyLanguage model FoxedUp or BRILLIANT.MOD
:root
   order TX TY TZ RX RY RZ
   axis XYZ
   position 0 0 0  
   orientation 0 0 0 
:bonedata
  begin
     id 1 
     name lhipjoint
     direction 0.677091 -0.635792 0.370561 
     length 2.74323 
     axis 0 0 0  XYZ
  end
  begin
     id 2 
     name lfemur
     direction 0.34202 -0.939693 0  
     length 7.44995  
     axis 0 0 20  XYZ
    dof rx ry rz
    limits (-160.0 20.0)
           (-70.0 70.0)
           (-60.0 70.0)
  end
  begin
     id 3 
     name ltibia
     direction 0.34202 -0.939693 0   
     length 7.34467   
     axis 0 0 20   XYZ
    dof rx
    limits (-10.0 170.0)
  end
  begin
     id 4 
     name lfoot
     direction 0.101953 -0.280114 0.954537   
     length 1.72105   
     axis -90 7.62852e-016 20   XYZ
    dof rx rz
    limits (-45.0 90.0)
           (-70.0 20.0)
  end
  begin
     id 5 
     name ltoes
     direction 1.53537e-011 -4.21915e-011 1   
     length 0.865872   
     axis -90 7.62852e-016 20   XYZ
    dof rx
    limits (-90.0 20.0)
  end
  begin
     id 6 
     name rhipjoint
     direction -0.695735 -0.620586 0.361699   
     length 2.81045  
     axis 0 0 0  XYZ 
  end
  begin
     id 7 
     name rfemur
     direction -0.34202 -0.939693 0   
     length 7.29387   
     axis 0 0 -20   XYZ
    dof rx ry rz
    limits (-160.0 20.0)
           (-70.0 70.0)
           (-70.0 60.0)
  end
  begin
     id 8 
     name rtibia
     direction -0.34202 -0.939693 0   
     length 7.44935   
     axis 0 0 -20   XYZ
    dof rx
    limits (-10.0 170.0)
 end
 begin
     id 9 
     name rfoot
     direction -0.104163 -0.286184 0.952496   
     length 1.77731  
     axis -90 -7.62852e-016 -20   XYZ
    dof rx rz
    limits (-45.0 90.0)
           (-20.0 70.0)
  end
  begin
     id 10 
     name rtoes
     direction -1.5355e-011 -4.21888e-011 1   
     length 0.892424   
     axis -90 -7.62852e-016 -20   XYZ
    dof rx
    limits (-90.0 20.0)
  end
  begin
     id 11 
     name lowerback
     direction 0.0100202 0.997226 -0.0737589   
     length 2.16892   
     axis 0 0 0   XYZ
    dof rx ry rz
    limits (-20.0 45.0)
           (-30.0 30.0)
           (-30.0 30.0)
  end
  begin
     id 12 
     name upperback
     direction 0.00432398 0.999988 -0.00215019   
     length 2.17326   
     axis 0 0 0   XYZ
    dof rx ry rz
    limits (-20.0 45.0)
           (-30.0 30.0)
           (-30.0 30.0)
  end
  begin
     id 13 
     name thorax
     direction -0.00195047 0.999485 0.0320434   
     length 2.18139   
     axis 0 0 0   XYZ
    dof rx ry rz
    limits (-20.0 45.0)
           (-30.0 30.0)
           (-30.0 30.0)
  end
  begin
     id 14 
     name lowerneck
     direction 0.00782762 0.986241 0.165128   
     length 1.88415   
     axis 0 0 0   XYZ
    dof rx ry rz
    limits (-20.0 45.0)
           (-30.0 30.0)
           (-30.0 30.0)
  end
  begin
     id 15 
     name upperneck
     direction 0.00988667 0.981098 -0.193258   
     length 1.9242   
     axis 0 0 0   XYZ
    dof rx ry rz
    limits (-20.0 45.0)
           (-30.0 30.0)
           (-30.0 30.0)
  end
  begin
     id 16
     name head
     direction 0.00252199 0.996513 -0.0833958  
     length 1.93887  
     axis 0 0 0   XYZ
    dof rx ry rz
    limits (-20.0 45.0)
           (-30.0 30.0)
           (-30.0 30.0)
  end
  begin
     id 17 
     name lclavicle
     direction 0.929492 0.368193 -0.0218667  
     length 3.5955  
     axis 0 0 0   XYZ
    dof ry rz
    limits (-20.0 10.0)
           (0.0 20.0)
  end
  begin
     id 18 
     name lhumerus
     direction 1 -4.48972e-011 1.41911e-027   
     length 5.2795   
     axis 180 -30 -90   XYZ
    dof rx ry rz
    limits (-60.0 90.0)
           (-90.0 90.0)
           (-90.0 90.0)
  end
  begin
     id 19
     name lradius
     direction 1 -4.48963e-011 7.05772e-027   
     length 3.53504   
     axis 180 -30 -90   XYZ
    dof rx
    limits (-10.0 170.0)
  end
  begin
     id 20
     name lwrist
     direction 1 -4.48957e-011 9.54866e-027   
     length 1.76752   
     axis -7.69462e-015 90 90   XYZ
    dof ry
    limits (-180.0 0.0)
 end
  begin
     id 21 
     name lhand
     direction 1 -4.48979e-011 1.90973e-026   
     length 0.667948   
     axis -1.21857e-014 90 90   XYZ
    dof rx rz
    limits (-90.0 90.0)
           (-45.0 45.0)
  end
  begin
     id 22 
     name lfingers
     direction 1 -4.48987e-011 3.81946e-026   
     length 0.538517   
     axis -2.43714e-014 90 90   XYZ
    dof rx
    limits (0.0 90.0)
  end
  begin
     id 23
     name lthumb
     direction 0.707107 -6.34962e-011 0.707107   
     length 0.773206   
     axis -90 45 2.85299e-015   XYZ
    dof rx rz
    limits (-45.0 45.0)
           (-45.0 45.0)
  end
  begin
     id 24 
     name rclavicle
     direction -0.898763 0.414256 -0.143584   
     length 3.5176  
     axis 0 0 0   XYZ 
    dof ry rz
    limits (-10.0 20.0)
           (-20.0 0.0)
  end
  begin
     id 25 
     name rhumerus
     direction -1 -4.48971e-011 1.129e-027  
     length 5.25035   
     axis 180 30 90   XYZ
    dof rx ry rz
    limits (-90.0 60.0)
           (-90.0 90.0)
           (-90.0 90.0)
  end
  begin
     id 26 
     name rradius
     direction -1 -4.48955e-011 6.34664e-027   
     length 3.58884   
     axis 180 30 90   XYZ
    dof rx
    limits (-10.0 170.0)
  end
  begin
     id 27 
     name rwrist
     direction -1 -4.48966e-011 9.54866e-027   
     length 1.79442   
     axis -7.69462e-015 -90 -90   XYZ
    dof ry
    limits (-180.0 0.0)
  end
  begin
     id 28
     name rhand
     direction -1 -4.48973e-011 1.90973e-026   
     length 0.779235   
     axis -1.21857e-014 -90 -90   XYZ
    dof rx rz
    limits (-90.0 90.0)
           (-45.0 45.0)
  end
  begin
     id 29
     name rfingers
     direction -1 -4.48984e-011 3.81946e-026   
     length 0.62824   
     axis -2.43714e-014 -90 -90   XYZ
    dof rx
    limits (0.0 90.0)
  end
  begin
     id 30
     name rthumb
     direction -0.707107 -6.34968e-011 0.707107   
     length 0.90203   
     axis -90 -45 -2.85299e-015   XYZ
    dof rx rz
    limits (-45.0 45.0)
           (-45.0 45.0)
  end
:hierarchy
  begin
    root lhipjoint rhipjoint lowerback
    lhipjoint lfemur
    lfemur ltibia
    ltibia lfoot
    lfoot ltoes
    rhipjoint rfemur
    rfemur rtibia
    rtibia rfoot
    rfoot rtoes
    lowerback upperback
    upperback thorax
    thorax lowerneck lclavicle rclavicle
    lowerneck upperneck
    upperneck head
    lclavicle lhumerus
    lhumerus lradius
    lradius lwrist
    lwrist lhand lthumb
    lhand lfingers
    rclavicle rhumerus
    rhumerus rradius
    rradius rwrist
    rwrist rhand rthumb
    rhand rfingers
  end

#!OML:ASF I:\Random Stuff\random\construction\7_22_03\Session 2\subj1.ASF
:FULLY-SPECIFIED
:DEGREES
1
root -21.3305 17.4954 -2.30997 -169.309 78.2975 -175.238
lowerback 1.5741 0.249644 -0.075903
upperback -2.36664 0.383039 1.03235
thorax -3.32121 0.216043 1.0863
lowerneck -22.8309 -2.85949 -3.30227
upperneck 29.5018 -3.33741 2.70139
head 13.9926 -1.25579 1.0718
rclavicle 2.00027e-015 -1.59028e-015
rhumerus -38.2025 1.80547 -80.5162
rradius 32.5267
rwrist 2.50345
rhand -15.5705 18.7156
rfingers 7.12502
rthumb 10.6145 -10.9963
lclavicle 2.00027e-015 -1.59028e-015
lhumerus -34.4688 -5.40063 90.9238
lradius 31.0737
lwrist 23.3734
lhand -19.7918 53.7368
lfingers 7.12502
lthumb 6.54077 83.6158
rfemur -8.79496 24.1224 20.6424
rtibia 19.6493
rfoot -26.807 -43.4847
rtoes 28.1925
lfemur -16.1451 -20.0084 -15.8405
ltibia 26.1031
lfoot -16.3137 18.7935
ltoes -22.1286
2
root -21.3289 17.4937 -2.31005 -169.43 78.2708 -175.344
lowerback 1.56171 0.266163 -0.0772725
upperback -2.34308 0.403572 1.00904
thorax -3.29009 0.22563 1.06225
lowerneck -22.8725 -2.70329 -3.14444
upperneck 29.4193 -3.12428 2.55861
head 13.951 -1.16857 1.02586
rclavicle 2.25993e-014 -6.95746e-015
rhumerus -38.1731 1.54008 -80.4495
rradius 32.4237
rwrist 2.93017
rhand -15.6261 18.6608
rfingers 7.12502
rthumb 10.5609 -11.0538
lclavicle 2.25993e-014 -6.95746e-015
lhumerus -34.429 -5.42172 90.9262
lradius 31.1215
lwrist 23.3819
lhand -19.8509 53.8
lfingers 7.12502
lthumb 6.48379 83.6807
rfemur -8.75786 24.0949 20.5998
rtibia 19.5925
rfoot -27.119 -43.324
rtoes 29.0915
lfemur -16.1597 -20.0568 -15.8566
ltibia 26.1919
lfoot -15.2458 18.8728
ltoes -26.6514
3
root -21.3274 17.4922 -2.30965 -169.557 78.2521 -175.459
lowerback 1.56132 0.278672 -0.104045
upperback -2.33133 0.418491 0.992694
thorax -3.27808 0.233297 1.05982
lowerneck -22.8833 -2.57646 -3.04578
upperneck 29.3325 -2.9541 2.48276
head 13.9061 -1.09687 1.00913
rclavicle 5.70264e-015 -1.19271e-015
rhumerus -38.1397 1.43883 -80.4465
rradius 32.2836
rwrist 3.16583
rhand -15.7469 18.6047
rfingers 7.12502
rthumb 10.4443 -11.1159
lclavicle 5.70264e-015 -1.19271e-015
lhumerus -34.3953 -5.47808 90.9328
lradius 31.1148
lwrist 23.3855
lhand -19.9166 53.7924
lfingers 7.12502
lthumb 6.42035 83.6751
rfemur -8.75911 24.0728 20.5882
rtibia 19.6203
rfoot -26.5689 -43.5704
rtoes 28.1102
lfemur -16.1402 -20.1076 -15.8817
ltibia 26.1893
lfoot -14.8824 18.9455
ltoes -28.0593
4
root -21.3262 17.4933 -2.3087 -169.698 78.2419 -175.606
lowerback 1.54655 0.282005 -0.1599
upperback -2.32366 0.420787 0.989827
thorax -3.26226 0.23564 1.08817
lowerneck -22.8912 -2.47124 -2.9704
upperneck 29.2623 -2.80459 2.402
head 13.8691 -1.03713 0.990704
rclavicle -2.06115e-014 9.34288e-015
rhumerus -38.0856 1.44885 -80.4536
rradius 32.1255
rwrist 3.19802
rhand -15.72 18.6291
rfingers 7.12502
rthumb 10.4702 -11.0901
lclavicle -2.06115e-014 9.34288e-015
lhumerus -34.3481 -5.47749 90.9167
lradius 31.0622
lwrist 23.4259
lhand -19.8371 53.579
lfingers 7.12502
lthumb 6.49709 83.4594
rfemur -8.76722 24.0556 20.5776
rtibia 19.6262
rfoot -25.4112 -44.0443
rtoes 25.5602
lfemur -16.1364 -20.2852 -15.9002
ltibia 26.1994
lfoot -14.9226 19.0952
ltoes -27.7739
5
root -21.3249 17.4942 -2.30796 -169.732 78.2378 -175.675
lowerback 1.51104 0.290922 -0.178685
upperback -2.33089 0.431771 0.976678
thorax -3.24992 0.241447 1.08485
lowerneck -22.8918 -2.34984 -2.88237
upperneck 29.2127 -2.6398 2.33351
head 13.8394 -0.966867 0.978235
rclavicle -1.9102e-014 1.51076e-014
rhumerus -38.0794 1.39931 -80.4537
rradius 32.0274
rwrist 3.19389
rhand -15.4466 18.6302
rfingers 7.12502
rthumb 10.734 -11.0756
lclavicle -1.9102e-014 1.51076e-014
lhumerus -34.3145 -5.44981 90.8811
lradius 31.0116
lwrist 23.4836
lhand -19.6924 53.413
lfingers 7.12502
lthumb 6.63672 83.289
rfemur -8.8097 24.0495 20.5535
rtibia 19.6279
rfoot -24.9531 -44.2291
rtoes 24.2794
lfemur -16.17 -20.3756 -15.8989
ltibia 26.1971
lfoot -15.3375 19.1429
ltoes -26.2115
6
root -21.3232 17.4955 -2.30744 -169.635 78.2415 -175.622
lowerback 1.47143 0.301556 -0.168883
upperback -2.34951 0.446502 0.969778
thorax -3.24694 0.248695 1.07177
lowerneck -22.9353 -2.2596 -2.78716
upperneck 29.2487 -2.51181 2.23882
head 13.8565 -0.913689 0.947986
rclavicle -1.44367e-014 -3.77691e-015
rhumerus -38.1284 1.34477 -80.4633
rradius 31.9681
rwrist 3.20843
rhand -15.4616 18.6052
rfingers 7.12502
rthumb 10.7195 -11.1013
lclavicle -1.44367e-014 -3.77691e-015
lhumerus -34.2995 -5.40666 90.8675
lradius 30.9543
lwrist 23.4609
lhand -19.7112 53.5568
lfingers 7.12502
lthumb 6.61859 83.4334
rfemur -8.85768 24.0561 20.5418
rtibia 19.613
rfoot -24.9659 -44.201
rtoes 24.3671
lfemur -16.2198 -20.3618 -15.8699
ltibia 26.1985
lfoot -16.1509 18.8635
ltoes -19.7542
7
root -21.3222 17.498 -2.30707 -169.519 78.2347 -175.523
lowerback 1.46456 0.296287 -0.168808
upperback -2.35938 0.440238 0.984084
thorax -3.25325 0.24594 1.08673
lowerneck -23.0538 -2.19575 -2.7237
upperneck 29.3796 -2.41062 2.15556
head 13.9323 -0.87235 0.923426
rclavicle 2.52581e-014 -1.68967e-014
rhumerus -38.1819 1.42018 -80.4949
rradius 31.9217
rwrist 3.13661
rhand -15.5352 18.6329
rfingers 7.12502
rthumb 10.6486 -11.0773
lclavicle 2.52581e-014 -1.68967e-014
lhumerus -34.2839 -5.35281 90.8949
lradius 30.891
lwrist 23.4116
lhand -19.8868 53.7249
lfingers 7.12502
lthumb 6.44911 83.6067
rfemur -8.85593 24.0539 20.5583
rtibia 19.5852
rfoot -25.009 -44.1381
rtoes 24.7239
lfemur -16.2422 -20.2948 -15.8395
ltibia 26.2177
lfoot -15.0556 18.6934
ltoes -20.8967
8
root -21.3212 17.4984 -2.30652 -169.295 78.223 -175.312
lowerback 1.45309 0.293382 -0.142556
upperback -2.3588 0.437535 0.993533
thorax -3.246 0.244114 1.08189
lowerneck -23.2048 -2.12114 -2.64236
upperneck 29.5086 -2.30556 2.08607
head 14.0144 -0.825537 0.901875
rclavicle 3.35884e-014 7.55382e-015
rhumerus -38.2043 1.49796 -80.524
rradius 31.8998
rwrist 3.03882
rhand -15.6099 18.5845
rfingers 7.12502
rthumb 10.5765 -11.1293
lclavicle 3.35884e-014 7.55382e-015
lhumerus -34.2707 -5.34794 90.9239
lradius 30.8547
lwrist 23.4143
lhand -20.1343 53.8335
lfingers 7.12502
lthumb 6.21011 83.7225
rfemur -8.84267 24.0536 20.5981
rtibia 19.5475
rfoot -25.2891 -44.0462
rtoes 25.4381
lfemur -16.2776 -20.2796 -15.7809
ltibia 26.253
lfoot -16.1856 18.7762
ltoes -19.3974
9
root -21.3194 17.4963 -2.30576 -168.982 78.2038 -175.043
lowerback 1.38027 0.297498 -0.0929343
upperback -2.35315 0.444276 0.989819
thorax -3.19875 0.246172 1.05031
lowerneck -23.2917 -2.02888 -2.5406
upperneck 29.5451 -2.19641 2.04674
head 14.0431 -0.771949 0.889105
rclavicle -2.90288e-014 4.17448e-015
rhumerus -38.154 1.48431 -80.534
rradius 31.8251
rwrist 3.00301
rhand -15.6401 18.5439
rfingers 7.12502
rthumb 10.5474 -11.1715
lclavicle -2.90288e-014 4.17448e-015
lhumerus -34.239 -5.31994 90.9053
lradius 30.7854
lwrist 23.3042
lhand -20.1824 53.8437
lfingers 7.12502
lthumb 6.16371 83.7341
rfemur -8.87654 24.05 20.6293
rtibia 19.5043
rfoot -25.5896 -43.9555
rtoes 26.1713
lfemur -16.3619 -20.3843 -15.6838
ltibia 26.2962
lfoot -14.3088 18.7548
ltoes -20.9411
10
root -21.3182 17.4941 -2.30529 -168.873 78.1592 -174.96
lowerback 1.3424 0.302659 -0.0625549
upperback -2.35346 0.450905 0.957372
thorax -3.17727 0.248236 0.999829
lowerneck -23.3372 -1.95293 -2.42902
upperneck 29.5755 -2.12593 2.03909
head 14.0621 -0.728992 0.88046
rclavicle 3.10601e-015 -4.17448e-015
rhumerus -38.1015 1.3904 -80.5498
rradius 31.6965
rwrist 3.02268
rhand -15.6609 18.6081
rfingers 7.12502
rthumb 10.5273 -11.1083
lclavicle 3.10601e-015 -4.17448e-015
lhumerus -34.237 -5.34015 90.8587
lradius 30.6912
lwrist 23.1185
lhand -19.8882 53.5781
lfingers 7.12502
lthumb 6.44775 83.4599
rfemur -8.88772 24.0111 20.6358
rtibia 19.4541
rfoot -25.5945 -43.9328
rtoes 26.2909
lfemur -16.4336 -20.4789 -15.6347
ltibia 26.3495
lfoot -13.686 18.7391
ltoes -21.2771
11
root -21.3164 17.4947 -2.30496 -168.813 78.1374 -174.917
lowerback 1.32468 0.310648 -0.0475938
upperback -2.35808 0.46088 0.922498
thorax -3.17177 0.252347 0.955263
lowerneck -23.4115 -1.88911 -2.31276
upperneck 29.6817 -2.07275 2.03242
head 14.1208 -0.691125 0.869055
rclavicle 3.85145e-015 1.49089e-014
rhumerus -38.0965 1.31227 -80.5795
rradius 31.6403
rwrist 3.07232
rhand -15.6247 18.5715
rfingers 7.12502
rthumb 10.5622 -11.1431
lclavicle 3.85145e-015 1.49089e-014
lhumerus -34.2802 -5.44846 90.8589
lradius 30.6648
lwrist 23.121
lhand -19.7346 53.3694
lfingers 7.12502
lthumb 6.59603 83.2467
rfemur -8.87788 23.9932 20.6455
rtibia 19.4073
rfoot -25.492 -43.9496
rtoes 26.0406
lfemur -16.4694 -20.5875 -15.6044
ltibia 26.4016
lfoot -14.3976 18.8605
ltoes -20.1989
12
root -21.3122 17.4962 -2.30485 -168.68 78.1438 -174.798
lowerback 1.26548 0.302167 -0.0501738
upperback -2.34264 0.449261 0.929811
thorax -3.12229 0.246569 0.96503
lowerneck -23.49 -1.79443 -2.20808
upperneck 29.792 -1.95933 1.99523
head 14.1805 -0.633326 0.858684
rclavicle -1.4356e-014 -7.7526e-015
rhumerus -38.0922 1.39181 -80.6102
rradius 31.6744
rwrist 3.09249
rhand -15.5376 18.5293
rfingers 7.12502
rthumb 10.6462 -11.181
lclavicle -1.4356e-014 -7.7526e-015
lhumerus -34.3175 -5.48797 90.9205
lradius 30.7247
lwrist 23.3434
lhand -19.8457 53.4983
lfingers 7.12502
lthumb 6.48873 83.3789
rfemur -8.88234 24.0095 20.6653
rtibia 19.4035
rfoot -25.5411 -43.9267
rtoes 26.0789
lfemur -16.4694 -20.5635 -15.5763
ltibia 26.4227
lfoot -15.687 18.8921
ltoes -18.5965
13
root -21.3085 17.4955 -2.3042 -168.772 78.1348 -174.851
lowerback 1.25731 0.285446 -0.0829116
upperback -2.3094 0.425206 0.932936
thorax -3.08323 0.234968 0.987655
lowerneck -23.5004 -1.71176 -2.15075
upperneck 29.8047 -1.86647 2.01211
head 14.1852 -0.583881 0.873487
rclavicle -1.07841e-014 -9.93923e-017
rhumerus -38.081 1.45585 -80.6228
rradius 31.7116
rwrist 3.10738
rhand -15.5478 18.5219
rfingers 7.12502
rthumb 10.6364 -11.1889
lclavicle -1.07841e-014 -9.93923e-017
lhumerus -34.3713 -5.54259 90.981
lradius 30.8095
lwrist 23.6032
lhand -19.7814 53.5161
lfingers 7.12502
lthumb 6.55084 83.3948
rfemur -8.83453 24.0003 20.6791
rtibia 19.4366
rfoot -25.735 -43.8655
rtoes 26.5274
lfemur -16.4049 -20.4445 -15.6182
ltibia 26.4096
lfoot -16.221 18.8256
ltoes -18.242
14
root -21.3052 17.4921 -2.30139 -169.043 78.1427 -175.101
lowerback 1.25906 0.283907 -0.18535
upperback -2.29414 0.419502 0.925754
thorax -3.06908 0.234167 1.03796
lowerneck -23.4957 -1.68424 -2.13886
upperneck 29.8301 -1.85281 2.07948
head 14.1956 -0.565825 0.901843
rclavicle -2.168e-014 -1.19271e-015
rhumerus -38.0837 1.43668 -80.6106
rradius 31.7425
rwrist 3.10259
rhand -15.5415 18.5335
rfingers 7.12502
rthumb 10.6425 -11.177
lclavicle -2.168e-014 -1.19271e-015
lhumerus -34.4361 -5.57258 91.0041
lradius 30.8032
lwrist 23.6537
lhand -19.6117 53.2559
lfingers 7.12502
lthumb 6.71463 83.1295
rfemur -8.79738 24.0024 20.6502
rtibia 19.4763
rfoot -26.0896 -43.7389
rtoes 27.1897
lfemur -16.3597 -20.467 -15.6838
ltibia 26.3847
lfoot -16.0753 18.9088
ltoes -18.4493
15
root -21.301 17.4907 -2.29717 -169.24 78.1785 -175.307
lowerback 1.24128 0.300394 -0.319332
upperback -2.29024 0.437939 0.937444
thorax -3.05656 0.246575 1.12449
lowerneck -23.6731 -1.68741 -2.06326
upperneck 30.0986 -1.85938 2.02352
head 14.3503 -0.56242 0.868095
rclavicle 8.11911e-015 1.39149e-014
rhumerus -38.1043 1.47652 -80.5997
rradius 31.7934
rwrist 3.01265
rhand -15.5343 18.5158
rfingers 7.12502
rthumb 10.6494 -11.1943
lclavicle 8.11911e-015 1.39149e-014
lhumerus -34.4813 -5.54158 91.036
lradius 30.7375
lwrist 23.5742
lhand -19.6539 53.1749
lfingers 7.12502
lthumb 6.67393 83.0497
rfemur -8.79923 24.0381 20.628
rtibia 19.5122
rfoot -26.089 -43.7628
rtoes 26.9152
lfemur -16.3362 -20.4951 -15.7216
ltibia 26.3675
lfoot -15.4375 18.9582
ltoes -19.0967
